<svg xmlns="http://www.w3.org/2000/svg" xmlns:xlink="http://www.w3.org/1999/xlink" width="100" zoomAndPan="magnify" viewBox="0 0 75 74.999997" height="100" preserveAspectRatio="xMidYMid meet" version="1.0"><defs><clipPath id="4565db4318"><path d="M 0 53.679688 L 33.855469 53.679688 L 33.855469 75 L 0 75 Z M 0 53.679688 " clip-rule="nonzero"/></clipPath><clipPath id="bff772872d"><path d="M 0 0.679688 L 33.855469 0.679688 L 33.855469 22 L 0 22 Z M 0 0.679688 " clip-rule="nonzero"/></clipPath><clipPath id="4aea17bd38"><rect x="0" width="34" y="0" height="22"/></clipPath><clipPath id="8596e6f1d3"><path d="M 41.144531 0 L 75 0 L 75 75 L 41.144531 75 Z M 41.144531 0 " clip-rule="nonzero"/></clipPath><clipPath id="8b4030c52f"><path d="M 0.144531 0 L 34 0 L 34 75 L 0.144531 75 Z M 0.144531 0 " clip-rule="nonzero"/></clipPath><clipPath id="53542f1aca"><rect x="0" width="34" y="0" height="75"/></clipPath><clipPath id="59fb874fba"><path d="M 0 0 L 33.855469 0 L 33.855469 46.394531 L 0 46.394531 Z M 0 0 " clip-rule="nonzero"/></clipPath><clipPath id="9008a8320f"><path d="M 0 0 L 33.855469 0 L 33.855469 46.394531 L 0 46.394531 Z M 0 0 " clip-rule="nonzero"/></clipPath><clipPath id="62dee2de6e"><rect x="0" width="34" y="0" height="47"/></clipPath></defs><g clip-path="url(#4565db4318)"><g transform="matrix(1, 0, 0, 1, 0, 53)"><g clip-path="url(#4aea17bd38)"><g clip-path="url(#bff772872d)"><path fill="#1f68de" d="M 0 0.679688 L 33.894531 0.679688 L 33.894531 22 L 0 22 Z M 0 0.679688 " fill-opacity="1" fill-rule="nonzero"/></g></g></g></g><g clip-path="url(#8596e6f1d3)"><g transform="matrix(1, 0, 0, 1, 41, -0.000000000000001893)"><g clip-path="url(#53542f1aca)"><g clip-path="url(#8b4030c52f)"><path fill="#1f68de" d="M 0.144531 0 L 34 0 L 34 74.988281 L 0.144531 74.988281 Z M 0.144531 0 " fill-opacity="1" fill-rule="nonzero"/></g></g></g></g><g clip-path="url(#59fb874fba)"><g transform="matrix(1, 0, 0, 1, 0, -0.000000000000001893)"><g clip-path="url(#62dee2de6e)"><g clip-path="url(#9008a8320f)"><path fill="#1f68de" d="M 0 0 L 33.855469 0 L 33.855469 46.421875 L 0 46.421875 Z M 0 0 " fill-opacity="1" fill-rule="nonzero"/></g></g></g></g></svg>